<?xml version="1.0" encoding="UTF-8" standalone="no"?>
<!-- Created with Inkscape (http://www.inkscape.org/) -->

<svg
   width="4.7392182mm"
   height="6.6148119mm"
   viewBox="0 0 4.7392182 6.6148119"
   version="1.1"
   id="svg715"
   xmlns="http://www.w3.org/2000/svg"
   xmlns:svg="http://www.w3.org/2000/svg">
  <defs
     id="defs712" />
  <g
     id="layer1"
     transform="translate(-75.661625,-129.15574)">
    <path
       style="fill:none;stroke:#ffffff;stroke-width:0.264583;stroke-dasharray:none"
       d="m 77.806839,135.62503 c -0.363446,-0.0505 -0.679256,-0.16807 -0.947454,-0.34738 -0.60491,-0.40471 -0.989649,-1.04641 -1.051923,-1.75432 -0.03896,-0.44292 0.01091,-0.954 0.124351,-1.28558 0.103111,-0.2996 0.318708,-0.69132 0.480799,-0.87295 l 0.06951,-0.0776 5.01e-4,0.17481 c 0,0.49409 0.141033,0.91252 0.39522,1.18751 0.05782,0.0618 0.104695,0.10232 0.113768,0.0966 0.02435,-0.0169 0.01887,-0.0905 -0.01948,-0.27204 -0.03105,-0.15009 -0.03652,-0.20911 -0.04322,-0.57791 -0.0098,-0.47046 0.0098,-0.70424 0.07834,-0.97518 0.135006,-0.53455 0.495165,-1.0604 0.980444,-1.43155 0.150223,-0.11472 0.299899,-0.21135 0.310612,-0.20068 0,0.004 9.81e-4,0.0169 -0.0098,0.0337 -0.04017,0.0781 -0.07639,0.28723 -0.07737,0.44349 -5.98e-4,0.19449 0.02374,0.30353 0.108288,0.48846 0.124719,0.27206 0.323637,0.48623 0.807133,0.87031 0.453166,0.35974 0.668481,0.59065 0.857361,0.91903 0.223631,0.38898 0.298926,0.73765 0.282613,1.31042 -0.01584,0.55198 -0.0994,0.84186 -0.357602,1.23853 -0.334593,0.51377 -0.869999,0.87969 -1.471604,1.00527 -0.164224,0.0337 -0.489504,0.0505 -0.634206,0.0282 z m 0.582997,-0.73585 c 0.158441,-0.0337 0.292474,-0.0748 0.415367,-0.13434 0.307446,-0.14952 0.615994,-0.47329 0.767082,-0.80554 0.119669,-0.26308 0.155214,-0.4272 0.155093,-0.71596 0,-0.19054 0,-0.2372 -0.0353,-0.35412 -0.06757,-0.25743 -0.187901,-0.49914 -0.358088,-0.71623 -0.181632,-0.23159 -0.45481,-0.42663 -0.704322,-0.50195 -0.0353,-0.0114 -0.03835,-0.0114 -0.02922,0.0169 0.0098,0.0169 0.06087,0.13603 0.122714,0.26475 0.168545,0.34681 0.200074,0.47104 0.200074,0.78604 0,0.48958 -0.22856,0.97502 -0.613741,1.30391 -0.06659,0.0573 -0.126483,0.10397 -0.132512,0.10397 -0.0098,0 0,-0.0282 0.0098,-0.0675 0.01091,-0.0393 0.042,-0.15119 0.06757,-0.2535 0.07445,-0.29173 0.09599,-0.67503 0.04017,-0.6943 -0.0098,-0.003 -0.04139,0.0635 -0.07341,0.14783 -0.154788,0.40078 -0.402827,0.68959 -0.772372,0.89885 -0.104392,0.059 -0.33429,0.1439 -0.449452,0.16582 -0.119238,0.0225 -0.121611,0.0337 -0.02618,0.12368 0.218761,0.20629 0.528155,0.36986 0.821718,0.43563 0.136406,0.0282 0.425288,0.0282 0.595415,-0.005 z"
       id="path89774" />
  </g>
</svg>
