<?xml version="1.0" encoding="UTF-8" standalone="no"?>
<!-- Created with Inkscape (http://www.inkscape.org/) -->

<svg
   width="6.608645mm"
   height="6.6145816mm"
   viewBox="0 0 6.6086449 6.6145817"
   version="1.1"
   id="svg715"
   xmlns="http://www.w3.org/2000/svg"
   xmlns:svg="http://www.w3.org/2000/svg">
  <defs
     id="defs712" />
  <g
     id="layer1"
     transform="translate(-75.661544,-129.15566)"
     style="stroke:#ffffff">
    <path
       style="fill:none;stroke:#ffffff;stroke-width:0.264583;stroke-dasharray:none"
       d="m 77.087047,135.56721 c -0.154113,-0.0415 -0.369193,-0.1211 -0.477879,-0.17689 l -0.197646,-0.10141 0.398082,-0.39721 c 0.468017,-0.46702 0.769966,-0.6008 1.268466,-0.56196 0.34369,0.0268 0.860022,0.23193 0.860022,0.34165 0,0.0405 -0.161983,0.23865 -0.360028,0.44029 -0.292286,0.29756 -0.41442,0.38274 -0.648628,0.4523 -0.344387,0.1023 -0.472598,0.10278 -0.842289,0.003 z m -1.132683,-0.88941 c -0.181907,-0.41854 -0.206612,-1.0237 -0.05479,-1.33776 0.106195,-0.21942 0.745558,-0.88559 0.84996,-0.88559 0.02391,0 0.107192,0.14079 0.184398,0.31287 0.195355,0.43541 0.196351,0.93845 0,1.32726 -0.120939,0.24269 -0.712584,0.86281 -0.823163,0.86281 -0.02092,0 -0.09265,-0.12582 -0.159193,-0.27959 z m 2.321253,-0.64593 c -0.174037,-0.0668 -0.325759,-0.14909 -0.337115,-0.18313 -0.03387,-0.10319 0.569131,-0.69019 0.857133,-0.83374 0.207808,-0.10359 0.350165,-0.13415 0.618841,-0.13287 0.394098,9.9e-4 0.922484,0.18225 0.94988,0.3243 0.02491,0.12885 -0.501788,0.67434 -0.793874,0.82239 -0.341798,0.17321 -0.84757,0.17441 -1.294865,0.003 z m -0.863409,-0.80854 c -0.08866,-0.19361 -0.149431,-0.43606 -0.16537,-0.65937 -0.03487,-0.4947 0.106195,-0.80799 0.554985,-1.22789 0.187784,-0.17571 0.365905,-0.31948 0.395791,-0.31948 0.02989,0 0.117353,0.1378 0.194658,0.30621 0.334226,0.72891 0.109881,1.45439 -0.631493,2.04161 l -0.208406,0.16512 z m 2.617424,-0.54152 c -0.249948,-0.0624 -0.665564,-0.23877 -0.665564,-0.28249 0,-0.0262 0.143752,-0.20117 0.319483,-0.389 0.393699,-0.42092 0.735596,-0.58886 1.198034,-0.58845 0.325061,1.9e-4 0.930354,0.1982 0.968907,0.31674 0.03487,0.10636 -0.564449,0.70378 -0.846474,0.84435 -0.269473,0.13428 -0.669548,0.17487 -0.974386,0.0988 z m -1.155795,-0.87992 c -0.381446,-0.94873 -0.230522,-1.42877 0.689372,-2.19284 l 0.119146,-0.099 0.146741,0.31393 c 0.118947,0.2546 0.146741,0.38941 0.14694,0.71335 3.98e-4,0.34325 -0.02192,0.43936 -0.157101,0.68374 -0.156006,0.28163 -0.671939,0.80754 -0.791882,0.80716 -0.03387,-1.1e-4 -0.103207,-0.10196 -0.153216,-0.22633 z m 1.416601,-0.94144 c 0.122732,-0.92578 0.651716,-1.47646 1.475177,-1.53583 l 0.351461,-0.0253 -0.04583,0.33596 c -0.05479,0.40013 -0.236598,0.81691 -0.449487,1.0298 -0.22026,0.22034 -0.666958,0.41069 -1.043921,0.44488 l -0.324364,0.0294 z"
       id="path89794" />
  </g>
</svg>
