<?xml version="1.0" encoding="UTF-8" standalone="no"?>
<!-- Created with Inkscape (http://www.inkscape.org/) -->

<svg
   width="4.5398536mm"
   height="6.6147375mm"
   viewBox="0 0 4.5398535 6.6147376"
   version="1.1"
   id="svg715"
   xmlns="http://www.w3.org/2000/svg"
   xmlns:svg="http://www.w3.org/2000/svg">
  <defs
     id="defs712" />
  <g
     id="layer1"
     transform="translate(-75.661544,-129.15566)">
    <path
       style="fill:#000000;stroke-width:1"
       d="m 77.457062,135.73726 c -1.167054,-0.26579 -1.942188,-1.3765 -1.772158,-2.53929 0.04784,-0.32715 0.150319,-0.60101 0.356709,-0.95291 0.09473,-0.16131 0.538412,-0.92021 0.986307,-1.68643 0.710452,-1.21531 0.823933,-1.39424 0.889189,-1.40186 0.04401,-0.006 0.09377,0.0128 0.120753,0.044 0.08803,0.10095 1.943909,3.30946 2.012419,3.47876 0.204571,0.50642 0.20151,1.18113 -0.0096,1.69636 -0.164576,0.4049 -0.521954,0.82546 -0.903062,1.06263 -0.116543,0.0725 -0.337285,0.1742 -0.49057,0.22592 -0.242846,0.0819 -0.325708,0.0953 -0.645291,0.1039 -0.242271,0.007 -0.427515,-0.004 -0.54645,-0.0311 z m 0.981523,-0.29895 c 0.543388,-0.14104 1.014917,-0.52078 1.263599,-1.01766 0.164193,-0.32816 0.219211,-0.55876 0.218158,-0.91445 -9.56e-4,-0.34018 -0.05645,-0.58595 -0.196343,-0.8647 -0.115872,-0.23124 -1.712163,-2.96135 -1.763545,-3.01609 -0.02966,-0.0313 -0.167351,0.18545 -0.719159,1.12918 -0.375558,0.64231 -0.764991,1.30641 -0.865363,1.47579 -0.258729,0.43641 -0.30437,0.53349 -0.368478,0.78429 -0.290974,1.13746 0.47306,2.28816 1.640401,2.47073 0.20438,0.032 0.569988,0.0101 0.79073,-0.0471 z m 0.06602,-0.41912 c -0.03349,-0.0336 -0.06124,-0.0714 -0.06124,-0.084 0,-0.0478 0.09377,-0.15317 0.135488,-0.15317 0.02392,0 0.117213,-0.0358 0.20639,-0.0794 0.29528,-0.14458 0.510855,-0.46404 0.55774,-0.82653 0.02871,-0.22304 0.164385,-0.31286 0.25758,-0.17067 0.108984,0.16636 -0.09827,0.75376 -0.357474,1.01292 -0.134627,0.13468 -0.430002,0.30414 -0.599267,0.34379 -0.05741,0.0133 -0.09473,0.002 -0.139315,-0.0429 z"
       id="path89804" />
  </g>
</svg>
