<?xml version="1.0" encoding="UTF-8" standalone="no"?>
<!-- Created with Inkscape (http://www.inkscape.org/) -->

<svg
   width="5.250802mm"
   height="6.6156054mm"
   viewBox="0 0 5.250802 6.6156054"
   version="1.1"
   id="svg715"
   xmlns="http://www.w3.org/2000/svg"
   xmlns:svg="http://www.w3.org/2000/svg">
  <defs
     id="defs712" />
  <g
     id="layer1"
     transform="translate(-75.661544,-129.15574)">
    <path
       id="path89784"
       style="fill:#000000;stroke:#000000;stroke-width:0.105833;stroke-dasharray:none"
       d="m 77.168207,129.20866 c -0.02244,-2.5e-4 -0.04097,0.0104 -0.05462,0.0276 -0.01853,0.0229 -0.02439,0.0512 -0.0098,0.0809 0.02731,0.0452 0.03317,0.10395 0.01853,0.16628 -0.01366,0.0623 -0.04487,0.13434 -0.09462,0.23364 -0.03219,0.0635 -0.08194,0.15527 -0.114419,0.20868 -0.02926,0.0479 -0.106517,0.16763 -0.180065,0.27932 -0.03707,0.0558 -0.07218,0.10907 -0.0992,0.1492 -0.01366,0.0201 -0.02438,0.0372 -0.03316,0.0496 -0.0098,0.007 -0.0098,0.0103 -0.0117,0.0148 0,0.002 0,0.005 0,0.007 -5.86e-4,9.7e-4 0,0.003 0,0.004 0,0 -4.88e-4,6.3e-4 0,9.8e-4 v 0.003 c 0,9.8e-4 0,0.003 0,0.003 0,0.004 0,0.008 -0.0098,0.0135 -0.0098,0.0135 -0.02146,0.0315 -0.03512,0.0509 -0.02634,0.0401 -0.06145,0.0905 -0.07803,0.11437 -0.01561,0.0219 -0.04194,0.0604 -0.05755,0.0831 h 9.76e-4 c -0.01658,0.0248 -0.03804,0.0543 -0.05072,0.071 -0.02536,0.0327 -0.05462,0.0728 -0.07121,0.0979 -0.01073,0.0167 -0.07218,0.10803 -0.142608,0.2113 -0.321991,0.47468 -0.441384,0.74999 -0.429776,0.91291 0.0098,0.0586 0,0.0664 0.04292,0.12158 0.04194,0.0551 0.133439,0.14743 0.310578,0.32533 0.08876,0.0891 0.173627,0.17282 0.239859,0.23727 0.03316,0.0323 0.06145,0.0595 0.08291,0.0795 0.02146,0.02 0.03902,0.0361 0.03707,0.0348 0.05267,0.0396 0.106127,0.055 0.184942,0.0483 0.07901,-0.007 0.182308,-0.0401 0.31448,-0.10286 0.106517,-0.0506 0.316821,-0.17232 0.443237,-0.25732 0.03999,-0.0271 0.11198,-0.0744 0.158996,-0.10548 l 0.08486,-0.0559 a 0.05888811,0.05889442 0 0 1 0.08194,0.0819 l -0.06731,0.0996 c -0.238884,0.35642 -0.393783,0.64138 -0.43202,0.7785 -0.02926,0.10608 -0.02341,0.22295 0,0.26454 0,-0.008 0.0117,0.0148 0.03219,0.0388 0.02048,0.024 0.04877,0.0558 0.08194,0.0917 0.0673,0.0719 0.154801,0.16229 0.243468,0.25107 0.08877,0.0888 0.178017,0.17661 0.249419,0.24351 0.03609,0.0335 0.06731,0.0615 0.09072,0.0819 0.01756,0.0152 0.03512,0.0273 0.03902,0.0302 l 2.93e-4,3.2e-4 2.93e-4,3.4e-4 c 0.04487,0.0187 0.17509,0.0236 0.262294,-0.004 0.118515,-0.037 0.349888,-0.15062 0.465574,-0.22839 0.02244,-0.015 0.05755,-0.037 0.07999,-0.0509 0.04877,-0.0304 0.124368,-0.0805 0.189917,-0.12422 0.03316,-0.0219 0.06438,-0.0426 0.08681,-0.0585 0.02341,-0.0159 0.04292,-0.0311 0.03804,-0.0273 0.0098,-0.008 0.01561,-0.0147 0.03024,-0.0211 0,-0.002 0.0098,-0.003 0.01463,-0.004 0,-6.3e-4 0.0098,-9.7e-4 0.0098,-9.7e-4 2.92e-4,0 0.01463,9.7e-4 0.01463,9.7e-4 2.93e-4,6e-5 0.01951,0.008 0.02048,0.008 1.95e-4,1.2e-4 0.01756,0.0159 0.01756,0.0161 9.8e-5,1.9e-4 0.0098,0.0194 0.0098,0.0197 0,3.1e-4 0,0.0158 0,0.0161 0,0.0264 -0.0098,0.0344 -0.01463,0.0437 0,0.005 -0.0098,0.008 -0.0098,0.0112 0,0.003 0,0.006 0,0.006 0,5.1e-4 0,0.0207 0,0.0211 -1.95e-4,3.8e-4 -0.02244,0.0248 -0.02244,0.025 0,0 0,6.3e-4 0,9.7e-4 -0.0098,0.006 -0.01268,0.0151 -0.02244,0.0286 -0.02048,0.0283 -0.04975,0.0696 -0.08096,0.11666 -0.06243,0.0941 -0.136073,0.21197 -0.183675,0.29576 -0.0993,0.17502 -0.159776,0.31322 -0.184064,0.41964 -0.02439,0.10643 -0.01463,0.17701 0.01951,0.23234 0,-0.007 0.01073,0.014 0.03121,0.0358 0.02048,0.0219 0.04877,0.0508 0.08096,0.0845 0.06438,0.0671 0.147193,0.15208 0.23108,0.23627 0.08389,0.0842 0.168067,0.168 0.233226,0.23102 0.03219,0.0315 0.06048,0.0581 0.08096,0.0769 0.0098,0.01 0.01951,0.016 0.02536,0.0211 0,0.002 0.0098,0.004 0.0098,0.005 0.01463,0.007 0.02634,0.008 0.03804,0.005 0.01366,-0.003 0.02926,-0.012 0.0478,-0.0322 0.0098,-0.008 0.0098,-0.006 0.0098,-0.009 6.83e-4,-0.003 0,-0.0133 0,-0.0348 0,-0.0265 0,-0.0353 0,-0.0361 -0.02439,-0.0281 -0.03219,-0.0651 -0.03024,-0.10056 9.75e-4,-0.0361 0.01073,-0.0749 0.02634,-0.1206 0.05267,-0.15611 0.167482,-0.35786 0.386076,-0.68419 0.08584,-0.12872 0.176846,-0.26041 0.203768,-0.29806 0.02439,-0.0342 0.06926,-0.0979 0.09823,-0.14032 0.03024,-0.043 0.06925,-0.0996 0.08779,-0.12684 0.09169,-0.1285 0.33194,-0.49267 0.396318,-0.59974 0.08681,-0.14441 0.164459,-0.30374 0.199769,-0.40617 0.02146,-0.0622 0.02439,-0.0784 0.02536,-0.16167 2.92e-4,-0.0797 0.0098,-0.0891 -0.03219,-0.14394 -0.03902,-0.0549 -0.131683,-0.14843 -0.322673,-0.34046 -0.08974,-0.0904 -0.175676,-0.17628 -0.242201,-0.24087 -0.03316,-0.0323 -0.06243,-0.0598 -0.08291,-0.0795 -0.02146,-0.0197 -0.03999,-0.0347 -0.03512,-0.0309 -0.04292,-0.0299 -0.121051,-0.0503 -0.186308,-0.0434 -0.164165,0.0175 -0.4169,0.13756 -0.825997,0.40979 -0.03999,0.0268 -0.07803,0.0528 -0.10681,0.072 -0.02926,0.0192 -0.04487,0.0291 -0.05463,0.0348 -9.7e-5,0 -0.0098,0.005 -0.0098,0.005 -9.7e-5,0 -0.01463,0.004 -0.01463,0.004 -9.8e-5,0 -0.03024,-0.004 -0.03024,-0.004 0,0 -0.01561,-0.009 -0.01561,-0.009 0,0 -0.01268,-0.0147 -0.01268,-0.0147 -9.8e-5,-5e-5 -0.0098,-0.0236 -0.0098,-0.0236 0,-6e-5 0,-0.0124 0,-0.0125 0,-1.9e-4 5.86e-4,-0.0112 9.76e-4,-0.0139 0,-0.011 0.0098,-0.0116 0.0098,-0.0161 0,-0.009 0.01073,-0.0188 0.01853,-0.0309 0.01463,-0.0242 0.03609,-0.0566 0.06243,-0.0943 0.194014,-0.28422 0.347157,-0.56324 0.401196,-0.72164 0.02634,-0.0744 0.02829,-0.0884 0.02829,-0.16891 5.85e-4,-0.0766 0,-0.0851 -0.01366,-0.11535 4.88e-4,0.003 -0.01268,-0.0195 -0.03121,-0.0401 -0.02049,-0.0235 -0.04877,-0.0549 -0.08194,-0.0907 -0.06731,-0.0715 -0.155679,-0.16032 -0.244834,-0.24942 -0.08876,-0.0891 -0.179967,-0.17854 -0.251954,-0.24614 -0.03609,-0.0339 -0.06633,-0.0624 -0.09072,-0.0831 -0.02438,-0.0208 -0.0478,-0.0347 -0.03999,-0.0309 -0.03707,-0.0186 -0.03609,-0.018 -0.119296,-0.0175 -0.07999,6.3e-4 -0.09364,0.003 -0.168945,0.0286 -0.15724,0.0537 -0.384809,0.17814 -0.690315,0.3812 -0.04487,0.03 -0.08681,0.0566 -0.115686,0.0746 -0.01463,0.009 -0.02536,0.016 -0.03512,0.0211 0,0.003 -0.0098,0.004 -0.01463,0.007 0,6.4e-4 -0.0098,0.003 -0.0098,0.003 0,0 -0.0098,0.003 -0.0098,0.003 0,2e-5 -0.01268,1e-5 -0.01268,0 0,0 -0.01073,-9.8e-4 -0.01171,-9.8e-4 0,0 -0.01561,-0.006 -0.01561,-0.006 0,0 -0.01756,-0.0164 -0.01756,-0.0164 0,0 -0.0098,-0.022 -0.0098,-0.022 0,0 -9.75e-4,-0.0187 -9.75e-4,-0.0187 0,0 0,-0.0125 0,-0.0125 0,-6e-5 0,-0.0124 0,-0.0125 0.0098,-0.0119 0.01853,-0.0272 0.04097,-0.0608 0.02244,-0.0336 0.0517,-0.0788 0.08291,-0.12652 0.278876,-0.41927 0.388125,-0.66259 0.390076,-0.82484 9.75e-4,-0.0741 0.0098,-0.0874 -0.03804,-0.14787 -0.04389,-0.0605 -0.142706,-0.1598 -0.339158,-0.35524 -0.127782,-0.12721 -0.21362,-0.2114 -0.269415,-0.26322 -0.02829,-0.0258 -0.0478,-0.0435 -0.06243,-0.0545 -0.01366,-0.011 -0.02341,-0.0138 -0.01463,-0.0112 l 6.83e-4,-9.8e-4 c -0.0098,-0.003 -0.01658,-0.004 -0.02439,-0.004 z m 0.145242,0.34603 c 0,0 0.01853,0.006 0.01853,0.006 1.95e-4,0 0.0098,0.004 0.0098,0.005 0,0.003 0.0098,0.005 0.0098,0.007 0.0098,0.004 0.0098,0.008 0.01366,0.0125 0.01073,0.0101 0.02634,0.0243 0.04487,0.042 0.03707,0.0355 0.08779,0.0846 0.142608,0.13933 0.09559,0.0948 0.144462,0.14499 0.174115,0.18009 0.01463,0.0176 0.02634,0.0319 0.03316,0.0495 0.0098,0.0178 0.0098,0.037 0.0098,0.0483 0,0.10034 -0.05755,0.22676 -0.160069,0.4088 -0.101933,0.18204 -0.250979,0.41297 -0.444896,0.68682 -0.0556,0.0787 -0.115588,0.16455 -0.290484,0.41734 -0.118905,0.17205 -0.214888,0.31942 -0.295361,0.45317 -0.04097,0.0676 -0.08584,0.14879 -0.121929,0.21885 -0.03512,0.0696 -0.06243,0.1357 -0.06438,0.14263 0,0 0,9.7e-4 0,9.7e-4 0,0.0102 -0.0098,0.0196 -0.0098,0.0286 0,0.005 0,0.01 -0.0098,0.0148 0,0.003 0,0.006 -0.0098,0.009 -9.75e-4,0.002 -0.0098,0.005 -0.0098,0.007 0,0.003 -0.0098,0.006 -0.0098,0.006 a 0.05888811,0.05889442 0 0 1 -9.75e-4,9.7e-4 c 0,0 -0.02146,0.008 -0.02146,0.008 0,0 -0.01463,9.7e-4 -0.01463,9.7e-4 0,0 -0.01463,-0.004 -0.01463,-0.004 -1.95e-4,0 -0.0098,-0.004 -0.01268,-0.005 0,-0.003 -0.0098,-0.005 -0.0098,-0.007 0,-0.004 -0.0098,-0.009 -0.01561,-0.0135 -0.01171,-0.0107 -0.02829,-0.0264 -0.04682,-0.0447 -0.03804,-0.0366 -0.09072,-0.0868 -0.146511,-0.14294 l -0.201134,-0.20244 a 0.05888811,0.05889442 0 0 1 -0.01756,-0.0509 l 0.0098,-0.0421 c 0.01171,-0.0712 0.03609,-0.13427 0.09169,-0.25238 0.09559,-0.20154 0.213035,-0.38567 0.587504,-0.92276 0.291655,-0.4182 0.403147,-0.58372 0.491911,-0.73019 0.08584,-0.14211 0.170311,-0.303 0.198501,-0.37528 0.0098,-0.0166 0.01268,-0.0317 0.01756,-0.0434 0,-0.006 0.0098,-0.0109 0.0098,-0.0147 0,-0.004 3.9e-4,-0.004 0,-0.0101 a 0.05888811,0.05889442 0 0 1 0.05365,0.0273 c 0,-2e-5 0,-3.3e-4 0,-3.4e-4 l -0.01658,-0.0566 c 0,0 0.02341,-0.003 0.02341,-0.003 z m 1.178227,1.22246 c 0.01073,0 0.02926,-0.002 0.0478,0.005 0.01951,0.007 0.03414,0.018 0.05267,0.0326 0.03512,0.0292 0.08389,0.0788 0.182406,0.17746 0.05463,0.055 0.103884,0.10511 0.139292,0.14295 0.01756,0.0189 0.03121,0.035 0.04194,0.047 0.0098,0.006 0.0098,0.0106 0.01366,0.0164 0,0.003 0,0.005 0.0098,0.0112 6.83e-4,0.002 0,0.006 0,0.006 0,1.2e-4 0,0.01 0,0.01 0,1.3e-4 0,0.0222 0,0.0223 0,0 -0.0098,0.0174 -0.0098,0.0175 0,0 -0.01463,0.0175 -0.01463,0.0175 -4.88e-4,4.5e-4 -0.0098,0.007 -0.01171,0.009 0,9.8e-4 -0.0098,0.003 -0.0098,0.004 0,0.003 -0.01073,0.005 -0.01756,0.008 -0.01268,0.006 -0.02829,0.0118 -0.04487,0.0183 -0.08486,0.0329 -0.196159,0.093 -0.397196,0.21394 -0.08096,0.0489 -0.371836,0.24339 -0.630911,0.42457 -0.664173,0.46443 -0.929393,0.62951 -1.145159,0.70292 -0.0439,0.0148 -0.08389,0.023 -0.120271,0.0236 -0.01756,4.4e-4 -0.03512,-3.7e-4 -0.05463,-0.008 -0.0098,-0.004 -0.02146,-0.008 -0.03219,-0.0197 -0.01073,-0.0117 -0.01853,-0.031 -0.01853,-0.0483 5.85e-4,-0.0585 0.02341,-0.12631 0.05853,-0.20999 0.03512,-0.0837 0.08389,-0.17991 0.140365,-0.27702 0.04389,-0.0747 0.111882,-0.18087 0.171481,-0.27078 0.03024,-0.045 0.05755,-0.0863 0.07999,-0.11667 0.01073,-0.0151 0.01951,-0.0275 0.02731,-0.0375 0,-0.005 0.0098,-0.009 0.01171,-0.0135 0,-0.003 0,-0.005 0.0098,-0.008 0,-9.7e-4 0,-0.003 0.0098,-0.005 0,-9.8e-4 0,-0.002 0.0098,-0.004 6.83e-4,-6.3e-4 0,-9.7e-4 0,-0.003 0,-0.003 0.01073,-0.007 0.01853,-0.0122 0.01561,-0.0105 0.03707,-0.0254 0.06438,-0.0437 0.05365,-0.0367 0.125928,-0.0873 0.203768,-0.14164 0.156069,-0.10896 0.331257,-0.22952 0.389979,-0.26946 0.188941,-0.12855 0.356033,-0.2309 0.494252,-0.30299 0.138121,-0.0721 0.24142,-0.11611 0.325307,-0.11928 z m 0.635885,0.62701 c 0.01658,-6.4e-4 0.03316,0.003 0.05365,0.0141 0.02048,0.0116 0.03317,0.034 0.03804,0.0509 0.0098,0.0171 0.0098,0.0309 0.0098,0.0459 0,0.10327 -0.05853,0.23045 -0.177822,0.43477 -0.119588,0.20431 -0.304432,0.48124 -0.566141,0.8521 -0.181431,0.25718 -0.352034,0.51234 -0.43836,0.65561 -0.04097,0.0677 -0.08584,0.14936 -0.121832,0.21984 -0.03609,0.0704 -0.06535,0.13493 -0.06926,0.15051 0,0.0133 -0.0098,0.0251 -0.01268,0.0358 0,0.005 0,0.011 -0.0098,0.0175 0,0.003 0,0.007 -0.0098,0.0125 0,0.003 -0.01171,0.01 -0.01268,0.01 -1.95e-4,0 -0.01268,0.005 -0.01268,0.005 -1.95e-4,0 -0.01853,0.003 -0.01853,0.003 0,0 -0.01756,-0.003 -0.01756,-0.003 0,0 -0.0098,-0.003 -0.0098,-0.003 -9.7e-5,0 -0.0098,-0.004 -0.0098,-0.004 -6.83e-4,0 0,-0.004 0,-0.005 0,-0.002 -0.0098,-0.003 -0.0098,-0.005 0,-0.003 -0.0098,-0.008 -0.01366,-0.0125 -0.0117,-0.0105 -0.02731,-0.0254 -0.04584,-0.0434 -0.03707,-0.036 -0.08584,-0.0847 -0.140365,-0.13901 -0.09754,-0.0974 -0.146022,-0.14616 -0.17509,-0.1814 -0.01463,-0.0177 -0.02536,-0.0335 -0.03219,-0.0523 -0.0098,-0.0187 -0.0098,-0.0363 -0.0098,-0.047 0,-0.10229 0.05853,-0.22932 0.170213,-0.42359 0.111492,-0.19425 0.279657,-0.44995 0.511615,-0.77882 0.05853,-0.0828 0.132172,-0.18927 0.164946,-0.23595 0.03414,-0.0494 0.06048,-0.0824 0.10086,-0.11665 0.03999,-0.0342 0.09267,-0.068 0.187283,-0.12915 0.297508,-0.19151 0.479133,-0.28737 0.624668,-0.31942 v 3.2e-4 c 0.01756,-0.004 0.03317,-0.009 0.04975,-0.01 z m 0.859552,0.83107 -3.9e-4,3.3e-4 a 0.05888811,0.05889442 0 0 1 0.0478,0.0175 l 0.198794,0.19751 c 0.05462,0.0547 0.103883,0.10497 0.140365,0.14261 0.01853,0.0188 0.03414,0.0344 0.04487,0.0461 0,0.006 0.0098,0.0107 0.01268,0.0151 0,0.003 0,0.004 0.0098,0.007 9.75e-4,0.002 0,0.007 0,0.008 0,1.3e-4 0,0.008 0,0.008 0,7e-5 0,0.007 0,0.007 0,6e-5 0,0.0137 0,0.0137 0,4.5e-4 0,0.0206 0,0.0211 -1.96e-4,4.5e-4 -0.0098,0.0116 -0.0098,0.0161 -0.0098,0.009 -0.01268,0.0136 -0.01853,0.0175 -0.01171,0.008 -0.02341,0.0121 -0.03707,0.0125 -0.0098,0.002 -0.01366,0.005 -0.02341,0.01 -0.02048,0.008 -0.04682,0.0205 -0.07706,0.0348 -0.06048,0.0288 -0.131586,0.0659 -0.187674,0.0979 -0.143291,0.0819 -0.471232,0.29492 -0.645639,0.41997 -0.09267,0.066 -0.401489,0.2805 -0.540488,0.37496 -0.319747,0.21727 -0.549169,0.35112 -0.709141,0.40881 -0.05072,0.0181 -0.09072,0.03 -0.125148,0.0358 -0.01756,0.003 -0.03414,0.005 -0.05072,0.003 -0.01756,-0.002 -0.03999,-0.008 -0.05755,-0.0286 -0.02634,-0.0321 -0.01853,-0.0512 -0.01756,-0.0706 0,-0.0194 0.0098,-0.0393 0.0098,-0.0621 0.01073,-0.0455 0.02829,-0.0996 0.05072,-0.1515 0.05267,-0.12014 0.174408,-0.33072 0.299361,-0.5179 l 0.104469,-0.15543 a 0.05888811,0.05889442 0 0 1 0.01463,-0.0148 l 0.296727,-0.20736 c 0.730503,-0.50895 1.006941,-0.67838 1.207197,-0.6993 z m 0.603599,0.6349 c 0.01366,0 0.02731,-4.7e-4 0.04584,0.005 0.01951,0.006 0.04682,0.0284 0.05365,0.0519 0.01366,0.0469 0,0.0688 -0.01366,0.11567 -0.05755,0.22362 -0.229422,0.49965 -0.78103,1.28556 -0.162312,0.2312 -0.301702,0.43915 -0.387442,0.58001 -0.03707,0.0609 -0.08194,0.14497 -0.120564,0.21985 -0.03804,0.0749 -0.07121,0.14636 -0.07706,0.16398 0,0.0125 -0.0098,0.0243 -0.01366,0.0348 0,0.005 -0.0098,0.01 -0.0098,0.0161 0,0.003 -0.0117,0.0116 -0.01268,0.0122 -2.93e-4,2.5e-4 -0.01268,0.009 -0.01268,0.009 -2.93e-4,0 -0.02536,0.006 -0.02634,0.006 0,0 -0.01561,-0.003 -0.01561,-0.003 0,0 -0.0098,-0.003 -0.0098,-0.003 -9.7e-5,0 -0.0098,-0.004 -0.0098,-0.004 -6.83e-4,0 0,-0.004 -0.0098,-0.005 0,-0.002 -0.0098,-0.003 -0.0098,-0.005 0,-0.004 -0.0098,-0.009 -0.01463,-0.0135 -0.01171,-0.0105 -0.02634,-0.0244 -0.04487,-0.0424 -0.03707,-0.0361 -0.08779,-0.0859 -0.141633,-0.14032 -0.09072,-0.0913 -0.14056,-0.14023 -0.170214,-0.17515 -0.01463,-0.0175 -0.02536,-0.0315 -0.03316,-0.0483 -0.0098,-0.0168 -0.01171,-0.0372 -0.01171,-0.0496 0,-0.10397 0.06048,-0.23522 0.172555,-0.43115 0.112175,-0.19593 0.280632,-0.45002 0.50664,-0.76865 0.07023,-0.0986 0.151582,-0.2149 0.17909,-0.25599 0.04975,-0.0745 0.07511,-0.0999 0.20367,-0.18501 0.176846,-0.11721 0.330477,-0.20908 0.45582,-0.2721 0.125246,-0.063 0.218107,-0.0992 0.296727,-0.0992 z m -1.494755,0.95135 c 2.93e-4,1.2e-4 3.9e-4,2.1e-4 6.83e-4,3.2e-4 0,-2e-5 -9.8e-5,-2.9e-4 0,-3.2e-4 -2.93e-4,-6e-5 -3.9e-4,4e-5 -6.83e-4,0 z m 0.01073,0.004 c -9.8e-5,2e-4 -1.95e-4,4.5e-4 -2.93e-4,6.4e-4 0,4.5e-4 0,0.002 0,0.002 -6.83e-4,-5.5e-4 0,-9.8e-4 0,-0.003 z" />
  </g>
</svg>
